# File created by Blade
# Date/Time:  Thu Jan 22 16:00:44 2015
# Frame Rate: 120.000 fps
#------------------------------------------------------
:FULLY-SPECIFIED
:DEGREES
2171
root 1.910140 37.130037 6.540675 1.682683 -6.026744 0.798801
RightUpLeg 7.348369 0.211107 -2.802545
RightLeg -7.022518 -0.000000 0.000000
RightFoot -7.853712 -6.364451 17.518029
RightToeBase 13.758939 -0.000000 -0.000000
LeftUpLeg 5.500106 6.453795 5.111569
LeftLeg -2.869635 -0.000000 0.000000
LeftFoot -6.623179 8.562232 -18.949110
LeftToeBase 6.702951 -0.000000 -0.000000
Spine 2.715722 2.240153 3.057637
RightShoulder 11.620263 -32.338667 -11.741125
RightArm 121.947219 -52.702429 -35.897224
RightForeArm -29.974580 -0.000000 116.967273
RightHand 33.040825 -0.000000 -18.282297
RightHandThumb1 -24.326973 -0.000000 -32.862282
LeftShoulder -28.193556 34.668926 1.071190
LeftArm 52.905004 -36.354805 -75.934686
LeftForeArm -17.008333 0.000000 135.321323
LeftHand -15.588983 -0.000000 9.172772
LeftHandThumb1 -26.253704 0.000000 33.147579
Head 14.603214 8.015557 6.058956
2172
root 1.921904 37.124161 6.529960 1.513242 -6.150751 0.820542
RightUpLeg 7.466865 0.264477 -2.845048
RightLeg -7.001045 -0.000000 0.000000
RightFoot -7.889461 -6.314348 17.467336
RightToeBase 13.782415 -0.000000 -0.000000
LeftUpLeg 5.669100 6.522157 5.090716
LeftLeg -2.859289 -0.000000 0.000000
LeftFoot -6.674500 8.569006 -18.935093
LeftToeBase 6.737062 -0.000000 -0.000000
Spine 3.171354 2.285868 3.014925
RightShoulder 11.546542 -32.646763 -11.695805
RightArm 121.526012 -52.868286 -35.621651
RightForeArm -31.210975 -0.000000 116.789230
RightHand 32.959640 -0.000000 -18.025753
RightHandThumb1 -24.326973 -0.000000 -32.862282
LeftShoulder -28.325269 34.924104 0.725755
LeftArm 51.549668 -34.841106 -75.164235
LeftForeArm -16.004119 0.000000 134.875664
LeftHand -15.703037 0.000000 8.574392
LeftHandThumb1 -26.253704 0.000000 33.147579
Head 14.132222 8.080036 5.894362
2173
root 1.934058 37.116525 6.523574 1.281943 -6.248127 0.835310
RightUpLeg 7.655560 0.296892 -2.879873
RightLeg -6.969949 -0.000000 0.000000
RightFoot -7.937723 -6.271663 17.391725
RightToeBase 13.807529 -0.000000 -0.000000
LeftUpLeg 5.911270 6.555302 5.081307
LeftLeg -2.864894 -0.000000 0.000000
LeftFoot -6.732985 8.598054 -18.895789
LeftToeBase 6.654796 -0.000000 -0.000000
Spine 3.662162 2.103555 2.983332
RightShoulder 11.773668 -32.844052 -11.850785
RightArm 120.988228 -53.205114 -35.208543
RightForeArm -32.791481 -0.000000 116.612536
RightHand 32.694162 0.000000 -17.772965
RightHandThumb1 -24.326973 -0.000000 -32.862282
LeftShoulder -28.501814 35.163332 0.380614
LeftArm 50.088730 -33.405760 -74.477466
LeftForeArm -15.047655 0.000000 134.466360
LeftHand -15.833114 -0.000000 8.047556
LeftHandThumb1 -26.253704 0.000000 33.147579
Head 13.803516 8.342645 5.688321
2174
root 1.944810 37.107886 6.519837 1.055799 -6.291410 0.843217
RightUpLeg 7.858815 0.286617 -2.905100
RightLeg -6.958682 -0.000000 0.000000
RightFoot -7.996447 -6.193136 17.348507
RightToeBase 13.735299 -0.000000 -0.000000
LeftUpLeg 6.131674 6.546220 5.085138
LeftLeg -2.845823 -0.000000 0.000000
LeftFoot -6.814489 8.594212 -18.863686
LeftToeBase 6.695251 -0.000000 -0.000000
Spine 4.145222 1.914601 2.931663
RightShoulder 11.900689 -33.160497 -11.906507
RightArm 120.470595 -53.515943 -34.887409
RightForeArm -34.425816 0.000000 116.452360
RightHand 32.575339 -0.000000 -17.543658
RightHandThumb1 -24.326973 -0.000000 -32.862282
LeftShoulder -29.162594 35.983761 -0.572406
LeftArm 49.822530 -31.978312 -74.194644
LeftForeArm -14.037440 -0.000000 133.874897
LeftHand -16.050519 -0.000000 7.559162
LeftHandThumb1 -26.253704 0.000000 33.147579
Head 13.462835 8.524039 5.518870
